<?xml version="1.0" encoding="UTF-8"?>
<svg width="36px" height="38px" viewBox="0 0 36 38" version="1.1" xmlns="http://www.w3.org/2000/svg" xmlns:xlink="http://www.w3.org/1999/xlink">
    <!-- Generator: Sketch 54.1 (76490) - https://sketchapp.com -->
    <title>confirm-info-icon</title>
    <desc>Created with Sketch.</desc>
    <g id="**FINAL" stroke="none" stroke-width="1" fill="none" fill-rule="evenodd">
        <g id="Step-4" transform="translate(-396.000000, -118.000000)">
            <g id="Group-18" transform="translate(0.000000, 100.000000)">
                <g id="Group-15" transform="translate(396.000000, 18.000000)">
                    <g id="confirm-info-icon">
                        <g id="Group-4">
                            <path d="M25.5019531,24.0019531 L10.5019531,24.0019531 C10.3652337,24.0019531 10.2480474,23.9531255 10.1503906,23.8554688 C10.0527339,23.757812 10.0039062,23.6406257 10.0039062,23.5039062 C10.0039062,23.3606764 10.0527339,23.2402349 10.1503906,23.1425781 C10.2480474,23.0449214 10.3652337,22.9960938 10.5019531,22.9960938 L25.5019531,22.9960938 C25.6386726,22.9960938 25.7558589,23.0449214 25.8535156,23.1425781 C25.9511724,23.2402349 26,23.3606764 26,23.5039062 C26,23.6406257 25.9511724,23.757812 25.8535156,23.8554688 C25.7558589,23.9531255 25.6386726,24.0019531 25.5019531,24.0019531 Z M25.5019531,19.0019531 L10.5019531,19.0019531 C10.3652337,19.0019531 10.2480474,18.9531255 10.1503906,18.8554688 C10.0527339,18.757812 10.0039062,18.6406257 10.0039062,18.5039062 C10.0039062,18.3606764 10.0527339,18.2402349 10.1503906,18.1425781 C10.2480474,18.0449214 10.3652337,17.9960938 10.5019531,17.9960938 L25.5019531,17.9960938 C25.6386726,17.9960938 25.7558589,18.0449214 25.8535156,18.1425781 C25.9511724,18.2402349 26,18.3606764 26,18.5039062 C26,18.6406257 25.9511724,18.757812 25.8535156,18.8554688 C25.7558589,18.9531255 25.6386726,19.0019531 25.5019531,19.0019531 Z M25.5019531,14.0019531 L10.5019531,14.0019531 C10.3652337,14.0019531 10.2480474,13.9531255 10.1503906,13.8554688 C10.0527339,13.757812 10.0039062,13.6406257 10.0039062,13.5039062 C10.0039062,13.3606764 10.0527339,13.2402349 10.1503906,13.1425781 C10.2480474,13.0449214 10.3652337,12.9960938 10.5019531,12.9960938 L25.5019531,12.9960938 C25.6386726,12.9960938 25.7558589,13.0449214 25.8535156,13.1425781 C25.9511724,13.2402349 26,13.3606764 26,13.5039062 C26,13.6406257 25.9511724,13.757812 25.8535156,13.8554688 C25.7558589,13.9531255 25.6386726,14.0019531 25.5019531,14.0019531 Z M7.50390625,14.9980469 C7.0872375,14.9980469 6.73242334,14.851564 6.43945312,14.5585938 C6.14648291,14.2656235 6,13.9140646 6,13.5039062 C6,13.0872375 6.14648291,12.7324233 6.43945312,12.4394531 C6.73242334,12.1464829 7.0872375,12 7.50390625,12 C7.91406455,12 8.26562354,12.1464829 8.55859375,12.4394531 C8.85156396,12.7324233 8.99804688,13.0872375 8.99804688,13.5039062 C8.99804688,13.9140646 8.85156396,14.2656235 8.55859375,14.5585938 C8.26562354,14.851564 7.91406455,14.9980469 7.50390625,14.9980469 Z M7.50390625,12.9960938 C7.36067637,12.9960938 7.24023486,13.0449214 7.14257812,13.1425781 C7.04492139,13.2402349 6.99609375,13.3606764 6.99609375,13.5039062 C6.99609375,13.6406257 7.04492139,13.757812 7.14257812,13.8554688 C7.24023486,13.9531255 7.36067637,14.0019531 7.50390625,14.0019531 C7.64062568,14.0019531 7.75781201,13.9531255 7.85546875,13.8554688 C7.95312549,13.757812 8.00195312,13.6406257 8.00195312,13.5039062 C8.00195312,13.3606764 7.95312549,13.2402349 7.85546875,13.1425781 C7.75781201,13.0449214 7.64062568,12.9960938 7.50390625,12.9960938 Z M7.50390625,19.9980469 C7.0872375,19.9980469 6.73242334,19.851564 6.43945312,19.5585938 C6.14648291,19.2656235 6,18.9140646 6,18.5039062 C6,18.0872375 6.14648291,17.7324233 6.43945312,17.4394531 C6.73242334,17.1464829 7.0872375,17 7.50390625,17 C7.91406455,17 8.26562354,17.1464829 8.55859375,17.4394531 C8.85156396,17.7324233 8.99804688,18.0872375 8.99804688,18.5039062 C8.99804688,18.9140646 8.85156396,19.2656235 8.55859375,19.5585938 C8.26562354,19.851564 7.91406455,19.9980469 7.50390625,19.9980469 Z M7.50390625,17.9960938 C7.36067637,17.9960938 7.24023486,18.0449214 7.14257812,18.1425781 C7.04492139,18.2402349 6.99609375,18.3606764 6.99609375,18.5039062 C6.99609375,18.6406257 7.04492139,18.757812 7.14257812,18.8554688 C7.24023486,18.9531255 7.36067637,19.0019531 7.50390625,19.0019531 C7.64062568,19.0019531 7.75781201,18.9531255 7.85546875,18.8554688 C7.95312549,18.757812 8.00195312,18.6406257 8.00195312,18.5039062 C8.00195312,18.3606764 7.95312549,18.2402349 7.85546875,18.1425781 C7.75781201,18.0449214 7.64062568,17.9960938 7.50390625,17.9960938 Z M7.50390625,24.9980469 C7.0872375,24.9980469 6.73242334,24.851564 6.43945312,24.5585938 C6.14648291,24.2656235 6,23.9140646 6,23.5039062 C6,23.0872375 6.14648291,22.7324233 6.43945312,22.4394531 C6.73242334,22.1464829 7.0872375,22 7.50390625,22 C7.91406455,22 8.26562354,22.1464829 8.55859375,22.4394531 C8.85156396,22.7324233 8.99804688,23.0872375 8.99804688,23.5039062 C8.99804688,23.9140646 8.85156396,24.2656235 8.55859375,24.5585938 C8.26562354,24.851564 7.91406455,24.9980469 7.50390625,24.9980469 Z M7.50390625,22.9960938 C7.36067637,22.9960938 7.24023486,23.0449214 7.14257812,23.1425781 C7.04492139,23.2402349 6.99609375,23.3606764 6.99609375,23.5039062 C6.99609375,23.6406257 7.04492139,23.757812 7.14257812,23.8554688 C7.24023486,23.9531255 7.36067637,24.0019531 7.50390625,24.0019531 C7.64062568,24.0019531 7.75781201,23.9531255 7.85546875,23.8554688 C7.95312549,23.757812 8.00195312,23.6406257 8.00195312,23.5039062 C8.00195312,23.3606764 7.95312549,23.2402349 7.85546875,23.1425781 C7.75781201,23.0449214 7.64062568,22.9960938 7.50390625,22.9960938 Z" id="l" fill="#36B5BB" fill-rule="nonzero"></path>
                            <rect id="Rectangle" stroke="#36B5BB" stroke-width="2" x="1" y="1" width="29" height="34" rx="5"></rect>
                            <circle id="Oval" fill="#F9C339" cx="30" cy="32" r="6"></circle>
                            <polyline id="Path-4" stroke="#FFFFFF" stroke-linecap="round" points="28 32.5103101 29.4191629 34 32 30"></polyline>
                        </g>
                    </g>
                </g>
            </g>
        </g>
    </g>
</svg>