<svg fill="none" height="44" viewBox="0 0 40 44" width="40" xmlns="http://www.w3.org/2000/svg"><g fill="#fff"><path d="m22.2094 10.6687h-4.7632c-.72 0-1.3036.5834-1.3036 1.3031v19.956c0 .7196.5836 1.3031 1.3036 1.3031h4.7632c.72 0 1.3036-.5835 1.3036-1.3031v-19.956c0-.7197-.5836-1.3031-1.3036-1.3031z"/><path d="m31.1689 17.5754h-23.14326c-.09668 0-.17505.0784-.17505.175v7.4778c0 .0966.07837.1749.17505.1749h23.14326c.0967 0 .1751-.0783.1751-.1749v-7.4778c0-.0966-.0784-.175-.1751-.175z"/><path d="m32.8778 35.5285c3.2799-3.2232 4.7908-7.6021 5.5279-12.0685.622-3.8313.8336-7.718.631-11.5941-.0368-.7874-.0783-1.5794-.1612-2.36215-.0035-.18207-.0775-.3557-.2063-.48447s-.3025-.20267-.4847-.20621c-1.4203-.04308-2.8226-.32965-4.1458-.84723-1.611-.58252-3.1782-1.27958-4.6895-2.08585-2.6992-1.41095-5.314-2.97759-7.8311-4.69201-.5298-.359148-1.0595-.7183-1.5755-1.0912662-.1058-.0632891-.2268-.0967138-.3501-.0967138s-.2443.0334247-.3501.0967138c-1.4741 1.0452262-2.9804 2.0213862-4.4821 2.9745162-2.8692 1.85009-5.91153 3.41687-9.08414 4.6782-1.50134.63736-3.10573.99773-4.735527 1.06364-.18179.00466-.354848.07893-.483435.20746s-.202883.30151-.207547.48322c-.2126204 2.15875-.2895472 4.32865-.2303269 6.49695.0921309 4.2362.5573919 8.5829 1.9669959 12.6026.67419 2.0422 1.70511 3.9488 3.04492 5.6313 1.88869 2.3023 4.38083 4.2178 6.83146 5.8708 1.8135 1.2391 3.7362 2.3103 5.7444 3.2001.6265.2763 1.5432.8519 2.2618.6539 1.6609-.5494 3.2518-1.2912 4.7402-2.2102 3.0235-1.7032 5.811-3.7946 8.2917-6.2207.6403-.6262-.3408-1.6024-.9766-.9762-3.395 3.2969-7.4902 6.2069-11.9125 7.8922-.1612.0645-.3409.1105-.4975.1796-.2579.1197.1612 0 .1981.0276-.3053-.1569-.6286-.276-.9628-.3546-1.7038-.7201-3.3461-1.5779-4.9105-2.5647-2.5468-1.5766-4.89727-3.4499-7.00199-5.5807-1.38448-1.4508-2.46512-3.1634-3.17852-5.0373-1.52476-3.8494-2.05912-8.0579-2.21574-12.1697-.1146-2.4769-.05456-4.9587.17965-7.42714l-.681767.67684c3.224577.0231 6.449157-1.53788 9.245367-2.96068 2.8016-1.44565 5.5136-3.05862 8.1213-4.83014.539-.36376 1.0825-.73212 1.6123-1.1143h-.7002c1.5017 1.08207 3.0587 2.08585 4.6342 3.05741 2.9743 1.90967 6.1316 3.51845 9.425 4.80251 1.5666.63715 3.2339.9911 4.9244 1.0452l-.691-.69065c.2095 2.15895.2787 4.32915.2073 6.49695-.0922 4.2086-.562 8.5092-2.0039 12.4875-.7986 2.2825-2.1024 4.3554-3.8142 6.0641-.122.131-.1885.3041-.1853.4831.0031.1789.0756.3496.2022.4762.1266.1265.2974.199.4765.2022.179.0031.3522-.0633.4832-.1853z"/><path d="m24.1904 16.1803v-5.5254c-.0024-.1824-.076-.3567-.2051-.4857-.129-.129-.3034-.20258-.4859-.20497h-7.8588c-.1825.00239-.3569.07597-.4859.20497-.1291.129-.2027.3033-.2051.4857v7.4593l.691-.6906h-7.4672c-.18251.0023-.35688.0759-.48596.2049-.12907.129-.20263.3033-.20502.4857v7.8415c.00239.1825.07595.3568.20502.4858.12908.129.30345.2025.48596.2049h7.4672l-.691-.6907v7.4594c.0024.1824.076.3567.2051.4857.129.129.3034.2026.4859.2049h7.8726c.1825-.0023.3569-.0759.486-.2049.129-.129.2026-.3033.205-.4857v-7.4594l-.691.6907h7.4626c.1825-.0024.3569-.0759.486-.2049.129-.129.2026-.3033.205-.4858v-7.8553c-.0024-.1824-.076-.3567-.205-.4857-.1291-.129-.3035-.2026-.486-.205h-2.3678c-.1832 0-.359.0728-.4886.2023-.1296.1296-.2024.3052-.2024.4884s.0728.3589.2024.4884.3054.2023.4886.2023h2.354l-.691-.6907v7.8553l.691-.6906h-7.4488c-.1825.0023-.3569.0759-.486.2049-.129.129-.2026.3033-.205.4857v7.4594l.691-.6907h-7.8726l.691.6907v-7.4594c-.0024-.1824-.076-.3567-.205-.4857-.1291-.129-.3035-.2026-.486-.2049h-7.4672l.69099.6906v-7.8553l-.69099.6907h7.4672c.1825-.0024.3569-.0759.486-.2049.129-.129.2026-.3033.205-.4858v-7.4593l-.691.6907h7.8726l-.691-.6907v5.5254c0 .1832.0728.3589.2024.4884s.3053.2023.4886.2023.359-.0728.4886-.2023.2024-.3052.2024-.4884z"/><path d="m29.0411 17.4096h-5.5279l.691.6906v-2.1042c0-.1832-.0728-.3589-.2024-.4884-.1295-.1295-.3053-.2023-.4886-.2023-.1832 0-.359.0728-.4886.2023-.1295.1295-.2023.3052-.2023.4884v2.1042c.0024.1825.0759.3568.205.4858s.3034.2025.4859.2049h5.5279c.1833 0 .359-.0727.4886-.2023.1296-.1295.2024-.3052.2024-.4884 0-.1831-.0728-.3588-.2024-.4883-.1296-.1296-.3053-.2023-.4886-.2023z"/></g></svg>