<svg xmlns="http://www.w3.org/2000/svg" width="37" height="33" viewBox="0 0 37 33">
    <g fill="none" fill-rule="evenodd" transform="translate(0 -1)">
        <path fill="#36B5BB" fill-rule="nonzero" d="M31.728 26.311c.88.935 1.396 1.802 1.546 2.602.15.8.226 1.222.226 1.265 0 .677-.242 1.257-.725 1.74a2.392 2.392 0 0 1-1.756.726H9.572a2.373 2.373 0 0 1-1.74-.726 2.373 2.373 0 0 1-.71-1.99c.011-.145.044-.335.097-.572h-.95a2.373 2.373 0 0 1-1.74-.725 2.392 2.392 0 0 1-.71-1.998c.011-.15.043-.343.097-.58h-.935a2.392 2.392 0 0 1-1.756-.725A2.392 2.392 0 0 1 .5 23.572c0-.043.075-.465.226-1.265.15-.8.666-1.668 1.546-2.602a8.48 8.48 0 0 1 1.749-1.41c.671-.414 1.42-.771 2.248-1.072.44-.15.905-.287 1.393-.41.49-.124 1-.232 1.531-.323a21.658 21.658 0 0 1 1.668-.218c.58-.053 1.176-.09 1.788-.112a7.843 7.843 0 0 1-.564-.556 5.212 5.212 0 0 1-.5-.637 5.487 5.487 0 0 1-.33-.507 4.565 4.565 0 0 1-.265-.54 6.518 6.518 0 0 1-1.507-.943 6.652 6.652 0 0 1-1.2-1.313 6.326 6.326 0 0 1-.878-1.78 6.664 6.664 0 0 1-.299-1.99c0-.903.172-1.754.516-2.554a6.73 6.73 0 0 1 1.41-2.103 6.542 6.542 0 0 1 2.103-1.418 6.46 6.46 0 0 1 2.562-.516c.677 0 1.337.1 1.982.298.644.199 1.24.492 1.788.878.494.344.932.744 1.314 1.2.38.457.695.96.942 1.508.183.085.36.177.532.273a6.652 6.652 0 0 1 1.829 1.523c.381.457.69.959.926 1.507.58.258 1.107.59 1.58.999.472.408.88.873 1.224 1.394a6.57 6.57 0 0 1 .153 6.985 6.672 6.672 0 0 1-2.425 2.385c.494.14.961.298 1.402.475.44.177.86.373 1.257.588.956.516 1.697 1.08 2.223 1.692.527.612.913 1.165 1.16 1.66.42.236.809.49 1.169.765.36.274.684.567.975.878zM25.25 14.5c0-.688-.129-1.33-.387-1.926A4.99 4.99 0 0 0 22.22 9.94a4.816 4.816 0 0 0-1.917-.386 4.895 4.895 0 0 0-3.505 1.45 5.084 5.084 0 0 0-1.055 1.571 4.799 4.799 0 0 0-.387 1.926c0 .688.13 1.33.387 1.926.258.596.61 1.12 1.056 1.57a4.895 4.895 0 0 0 3.504 1.45c.677 0 1.316-.128 1.918-.386a4.99 4.99 0 0 0 2.642-2.634 4.799 4.799 0 0 0 .387-1.926zM8.75 7.894a4.996 4.996 0 0 0 1.66 3.706c0-.065-.003-.132-.008-.202a2.629 2.629 0 0 1-.008-.201c0-.903.174-1.757.523-2.562a6.72 6.72 0 0 1 1.418-2.103 6.632 6.632 0 0 1 2.095-1.41A6.442 6.442 0 0 1 17 4.606h.403a5.198 5.198 0 0 0-1.668-1.216 4.8 4.8 0 0 0-2.038-.443c-.677 0-1.316.131-1.918.395A5.174 5.174 0 0 0 10.2 4.405a4.895 4.895 0 0 0-1.45 3.489zm3.303 3.303c0 .72.148 1.399.443 2.038.296.64.701 1.19 1.217 1.652 0-.065-.003-.13-.008-.194a2.327 2.327 0 0 1-.008-.193c0-.913.174-1.77.523-2.57.35-.8.822-1.499 1.418-2.095a6.745 6.745 0 0 1 2.095-1.418c.8-.349 1.657-.523 2.57-.523.065 0 .13.002.194.008.064.005.128.008.193.008a4.996 4.996 0 0 0-1.66-1.217A4.817 4.817 0 0 0 17 6.25c-.688 0-1.33.129-1.926.387A4.99 4.99 0 0 0 12.44 9.28a4.816 4.816 0 0 0-.386 1.917zM2.981 24.394h1.563c.13-.215.277-.44.444-.677.166-.237.362-.473.588-.71a8.571 8.571 0 0 1 1.74-1.41c.666-.413 1.418-.77 2.256-1.07.44-.151.905-.288 1.394-.412.488-.123.999-.23 1.53-.322a21.658 21.658 0 0 1 1.668-.217c.58-.054 1.176-.092 1.789-.113a6.647 6.647 0 0 1-1.354-1.644 6.33 6.33 0 0 0-.451-.016h-.451c-1.493 0-2.801.092-3.924.274-1.122.183-2.09.414-2.9.693-.811.28-1.483.594-2.014.943-.532.349-.964.695-1.297 1.039-.677.687-1.08 1.319-1.209 1.893l-.21.943c.011.225.097.416.258.572a.805.805 0 0 0 .58.234zm3.288 3.303h1.579a7.743 7.743 0 0 1 1.015-1.386 8.48 8.48 0 0 1 1.748-1.41c.671-.413 1.426-.77 2.264-1.071a14.984 14.984 0 0 1 1.595-.476 19.99 19.99 0 0 1 1.773-.338 23.893 23.893 0 0 1 1.95-.202 34.57 34.57 0 0 1 3.803-.024 24.036 24.036 0 0 1 3.069.347c.478.086.937.188 1.377.306A8.674 8.674 0 0 0 25 22.549a11.064 11.064 0 0 0-1.998-.75 18.24 18.24 0 0 0-2.634-.507A27.39 27.39 0 0 0 17 21.106c-1.504 0-2.814.09-3.932.266-1.117.178-2.08.409-2.892.693-.811.285-1.485.602-2.022.95-.537.35-.967.696-1.29 1.04-.676.688-1.082 1.319-1.216 1.893-.134.575-.201.884-.201.927 0 .226.08.419.241.58a.791.791 0 0 0 .58.242zM31.019 31c.225 0 .418-.08.58-.242a.852.852 0 0 0 .257-.58l-.209-.926c-.129-.575-.532-1.211-1.209-1.91a8.213 8.213 0 0 0-1.297-1.023c-.531-.349-1.203-.666-2.014-.95-.81-.285-1.778-.519-2.9-.702-1.123-.182-2.43-.273-3.924-.273-1.504 0-2.814.09-3.931.273-1.118.183-2.082.417-2.893.701-.81.285-1.485.602-2.022.951-.537.35-.967.69-1.289 1.023-.677.699-1.082 1.335-1.217 1.91-.134.574-.201.883-.201.926 0 .226.08.42.242.58a.791.791 0 0 0 .58.242h21.447z"/>
        <circle cx="31" cy="28" r="6" fill="#F9C339"/>
        <path fill="#FFF" fill-rule="nonzero" d="M31 29.892c.016 0 .032.002.05.008a.308.308 0 0 1 .048.02L32.944 31l-.334-2.146a.226.226 0 0 1 .059-.189L34 27.243l-2.026-.361a.18.18 0 0 1-.089-.04.247.247 0 0 1-.06-.078L31 25l-.825 1.763a.247.247 0 0 1-.06.078.18.18 0 0 1-.089.04L28 27.242l1.331 1.424a.226.226 0 0 1 .06.188L29.055 31l1.846-1.08a.308.308 0 0 1 .049-.02.157.157 0 0 1 .049-.008z"/>
    </g>
</svg>
